<?xml version="1.0" encoding="UTF-8"?><svg id="Layer_2" xmlns="http://www.w3.org/2000/svg" width="61.39mm" height="87.85mm" viewBox="0 0 174 249.04"><defs><style>.cls-1{fill:#231f20;}</style></defs><g id="Layer_1-2"><rect class="cls-1" x=".5" y="1.72" width="19" height="231.86"/><path class="cls-1" d="m20,234.08H0V1.22h20v232.86Zm-19-1h18V2.22H1v230.86Z"/><path class="cls-1" d="m55.24,230.96c-1.64-1.99-3.38-6.25-4.55-11.61L6.74,19.16c-1.83-8.33-1.62-16.19.47-17.54h0c2.09-1.35,5.26,4.31,7.09,12.64l43.95,200.19c1.83,8.33,1.62,16.19-.47,17.54h0c-.75.48-1.63.07-2.54-1.03"/><path class="cls-1" d="m57.13,232.69c-.59,0-1.37-.32-2.28-1.41h0c-1.76-2.14-3.5-6.55-4.66-11.82L6.25,19.27c-.66-13.78-.36-17.34.15-17.41.02,0,.05,0,1,0,.56,0,.98,0,1,0,.54,0,2.15,2.62,6.39,12.3l43.95,200.19c1.64,7.48,1.96,16.35-.69,18.06-.22.14-.53.28-.92.28Zm-1.5-2.05c.53.64,1.28,1.32,1.88.93,1.65-1.07,2.16-8.32.25-17.01L13.82,14.37c-1.59-7.26-4.03-11.72-5.6-12.37-.28-.11-.51-.1-.73.04-1.65,1.07-2.16,8.32-.25,17.01l43.95,200.19c1.12,5.12,2.79,9.38,4.45,11.4h0Z"/><rect class="cls-1" x="47.5" y="1.72" width="19" height="231.86"/><path class="cls-1" d="m67,234.08h-20V1.22h20v232.86Zm-19-1h18V2.22h-18v230.86Z"/><path class="cls-1" d="m13.46,9.01c-.42-.26-.73-.27-.98-.11l-.13.1-.28-.41-.23-.45.08-.06c.6-.39,1.32-.38,2.07.09l-.53.85Z"/><path class="cls-1" d="m72,240.95h-20v-29.21l-27-122.97v152.18H5V8.09h20v36.67l27,122.99V8.09h20v232.86Zm-19-1h18V9.09h-18v167.87L24,44.81V9.09H6v230.86h18V79.55l29,132.13v28.27Z"/><path class="cls-1" d="m18.46,15.88c-.42-.26-.73-.27-.98-.11l-.13.1-.28-.41-.23-.45.08-.06c.6-.39,1.32-.38,2.07.09l-.53.85Z"/><path class="cls-1" d="m77,247.82h-20v-29.21l-27-122.97v152.18H10V14.96h20v36.67l27,122.99V14.96h20v232.86Zm-19-1h18V15.96h-18v167.87L29,51.68V15.96H11v230.86h18V86.42l29,132.13v28.27Z"/><polygon class="cls-1" points="111 233.12 99.39 240.33 81.16 8.47 92.77 1.26 111 233.12"/><path class="cls-1" d="m98.95,241.19L80.64,8.21,93.2.4l18.32,232.98-12.57,7.81ZM81.68,8.74l18.14,230.74,10.65-6.62L92.33,2.12l-10.65,6.62Z"/><polygon class="cls-1" points="123.6 116.77 110.62 228.36 110.62 228.37 110.23 231.73 100.88 223.15 106.45 175.25 118.43 72.27 123.6 116.77"/><path class="cls-1" d="m110.62,232.76l-10.27-9.42,5.6-48.15,12.47-107.26,5.68,48.83v.06s-13.49,115.94-13.49,115.94Zm-9.21-9.81l8.44,7.75.28-2.39,12.97-111.55-4.67-40.17-17.02,146.36Z"/><path class="cls-1" d="m136.16,232.72l11.61,7.21L166,8.07l-11.61-7.21c-5.94,75.55-11.88,151.09-17.82,226.64-.14,1.74-.27,3.48-.41,5.22Z"/><path class="cls-1" d="m148.2,240.79l-12.57-7.81.43-5.53L153.96,0l12.57,7.81-.02.3-18.29,232.68Zm-11.52-8.33l10.65,6.62L165.48,8.33l-10.65-6.62-18.14,230.74Z"/><path class="cls-1" d="m131.95,44.93l-3.18,27.33-5.18,44.5-5.18-44.5-3.22-27.74c5.58.13,11.17.27,16.75.4Z"/><path class="cls-1" d="m123.6,121.1l-8.96-77.08,17.88.43-3.24,27.88-5.67,48.77Zm-7.83-76.05l7.83,67.4,7.79-67.02-15.63-.38Z"/><polygon class="cls-1" points="146.28 222.75 136.92 231.33 136.54 227.97 136.54 227.95 123.6 116.77 128.78 72.27 140.71 174.85 146.28 222.75"/><path class="cls-1" d="m136.54,232.36l-13.44-115.59v-.06s5.68-48.77,5.68-48.77l18.03,155-10.27,9.42Zm-12.44-115.59l13.21,113.53,8.44-7.75-16.98-145.95-4.67,40.17Z"/><path class="cls-1" d="m103.44,241.91L85.12,8.93l12.57-7.81,13.34,169.69,11.38-97.83-3.28-28.24h.58c2.81.09,5.62.15,8.43.22,2.77.07,5.55.13,8.32.2h.55s-3.24,27.82-3.24,27.82l11.33,97.44L158.44.71l12.57,7.81-.02.3-18.29,232.67-12.57-7.79.08-.92c.11-1.39.22-2.78.33-4.16l-12.44-106.82-12.47,107.33.4,4.96-12.57,7.81ZM86.16,9.46l18.14,230.73,10.65-6.62-.35-4.47v-.08s13.47-115.87,13.47-115.87l13.44,115.55c-.11,1.38-.22,2.77-.33,4.17l-.02.31,10.65,6.61L169.96,9.05l-10.65-6.62-13.62,173.19-1,.02-11.94-102.65v-.06s3.12-26.78,3.12-26.78c-2.59-.07-5.18-.13-7.78-.19-2.62-.06-5.24-.13-7.85-.19l3.16,27.22v.06s-11.99,102.99-11.99,102.99l-1-.02L96.82,2.83l-10.65,6.62Z"/><path class="cls-1" d="m106.44,249.04L88.12,16.06l12.57-7.81,13.34,169.69,11.38-97.83-3.28-28.24h.58c2.81.09,5.62.15,8.42.22,2.77.07,5.55.13,8.33.2h.55s-3.24,27.82-3.24,27.82l11.33,97.44L161.44,7.84l12.57,7.81-.02.3-18.29,232.67-12.57-7.79.08-.93c.11-1.39.22-2.77.33-4.15l-12.44-106.82-12.47,107.33.4,4.96-12.57,7.81ZM89.17,16.59l18.14,230.73,10.65-6.62-.35-4.47v-.08s13.47-115.87,13.47-115.87l13.44,115.55c-.1,1.38-.22,2.76-.33,4.15l-.03.32,10.65,6.61,18.14-230.73-10.65-6.62-13.62,173.19-1,.02-11.94-102.65v-.06s3.12-26.78,3.12-26.78c-2.59-.07-5.19-.13-7.78-.19-2.62-.06-5.23-.13-7.85-.19l3.16,27.22v.06s-11.99,102.99-11.99,102.99l-1-.02L99.82,9.97l-10.65,6.62Z"/></g></svg>