<?xml version="1.0" encoding="UTF-8"?><svg id="Layer_2" xmlns="http://www.w3.org/2000/svg" width="61.57mm" height="88.21mm" viewBox="0 0 174.53 250.05"><defs><style>.cls-1{fill:#ec008c;}.cls-2{fill:#231f20;}.cls-3{fill:#27aae1;}</style></defs><g id="Layer_1-2"><path class="cls-2" d="m103.44,242.06L85.12,9.08l12.57-7.81,13.34,169.69,11.38-97.83-3.28-28.24h.58c2.81.09,5.62.15,8.43.22,2.77.07,5.55.13,8.32.2h.55s-3.24,27.82-3.24,27.82l11.33,97.44L158.44.86l12.57,7.81-.02.3-18.29,232.67-12.57-7.79.08-.92c.11-1.39.22-2.78.33-4.16l-12.44-106.82-12.47,107.33.4,4.96-12.57,7.81ZM86.16,9.61l18.14,230.73,10.65-6.62-.35-4.47v-.08s13.47-115.87,13.47-115.87l13.44,115.55c-.11,1.38-.22,2.77-.33,4.17l-.02.31,10.65,6.61L169.96,9.2l-10.65-6.62-13.62,173.19-1,.02-11.94-102.65v-.06s3.12-26.78,3.12-26.78c-2.59-.07-5.18-.13-7.78-.19-2.62-.06-5.24-.13-7.85-.19l3.16,27.22v.06s-11.99,102.99-11.99,102.99l-1-.02L96.82,2.98l-10.65,6.62Z"/><path class="cls-1" d="m103,242.92L84.59,8.82,98.12.41l13.01,165.4,10.78-92.68-3.34-28.76,1.15.03c2.81.07,5.62.14,8.43.21,2.83.07,5.58.13,8.32.2l1.09.03-3.29,28.29,10.73,92.29L158,0l13.52,8.41-.05.61-18.36,233.49-13.53-8.39.14-1.69c.1-1.24.2-2.46.29-3.69l-11.94-102.46-11.98,103.06.42,5.17-13.52,8.41Zm.87-1.72h0s11.61-7.22,11.61-7.22v-.07s0,.07,0,.07l-11.61,7.22Zm48.38-.41h0s13.63-173.38,13.63-173.38l-13.63,173.38ZM86.68,9.87l18.05,229.61,9.7-6.03-.33-4.2v-.12s13.97-120.17,13.97-120.17l13.94,119.82c-.1,1.48-.22,2.86-.33,4.25h0s9.7,6.03,9.7,6.03L169.43,9.46l-9.7-6.03-13.59,172.82-1.9.04-.05-.45-11.94-102.71v-.05s3.07-26.3,3.07-26.3l-7.23-.18c-2.43-.06-4.85-.12-7.28-.18l3.1,26.7v.05s-12.04,103.5-12.04,103.5l-1.9-.04-.04-.45L96.38,3.84l-9.7,6.03Zm53.96,223.72l6.01,3.73-6.01-3.73.03-.41-.03.41Zm.37-4.83c-.07,1.02-.14,1.98-.22,2.94.08-.97.15-1.93.23-2.88v-.05Zm-12.93-111.14l-12.97,111.6v.05s12.97-111.65,12.97-111.65Zm-17.19,58.04h.09s.54-4.64.54-4.64l-1-.02-.12-1.5.48,6.16Zm22.44-101.86l11.8,101.47h.09s.37-4.67.37-4.67l-1,.02-11.26-96.82Zm-13.65-28.41l3.22,27.68-3.22-27.68h.58c1.55.05,3.11.09,4.66.13-1.76-.04-3.5-.09-5.24-.13h0ZM85.64,9.34l4.15,52.78-4.15-52.78,11.61-7.22-11.61,7.22Zm43.55,36.28l7.03.17c-2.34-.06-4.69-.12-7.03-.17ZM158.87,1.72l11.61,7.22h0s-11.61-7.22-11.61-7.22h0Z"/><path class="cls-2" d="m106.44,249.19L88.12,16.21l12.57-7.81,13.34,169.69,11.38-97.83-3.28-28.24h.58c2.81.09,5.62.15,8.42.22,2.77.07,5.55.13,8.33.2h.55s-3.24,27.82-3.24,27.82l11.33,97.44L161.44,7.99l12.57,7.81-.02.3-18.29,232.67-12.57-7.79.08-.93c.11-1.39.22-2.77.33-4.15l-12.44-106.82-12.47,107.33.4,4.96-12.57,7.81ZM89.17,16.74l18.14,230.73,10.65-6.62-.35-4.47v-.08s13.47-115.87,13.47-115.87l13.44,115.55c-.1,1.38-.22,2.76-.33,4.15l-.03.32,10.65,6.61,18.14-230.73-10.65-6.62-13.62,173.19-1,.02-11.94-102.65v-.06s3.12-26.78,3.12-26.78c-2.59-.07-5.19-.13-7.78-.19-2.62-.06-5.23-.13-7.85-.19l3.16,27.22v.06s-11.99,102.99-11.99,102.99l-1-.02L99.82,10.12l-10.65,6.62Z"/><path class="cls-3" d="m106.01,250.05L87.6,15.95l13.52-8.41,13.01,165.4,10.78-92.68-3.34-28.76,1.15.03c2.81.07,5.62.14,8.42.21,2.8.07,5.56.13,8.33.2l1.09.03-3.29,28.29,10.73,92.28L161.01,7.13l13.52,8.41-.05.61-18.36,233.49-13.53-8.39.13-1.63c.1-1.26.2-2.5.3-3.75l-11.94-102.46-11.98,103.06.42,5.17-13.52,8.41Zm.87-1.72h0s11.61-7.22,11.61-7.22v-.07s0,.07,0,.07l-11.61,7.22Zm48.38-.41h0s13.63-173.38,13.63-173.38l-13.63,173.38ZM89.69,17l18.05,229.61,9.7-6.03-.33-4.2v-.12s13.97-120.17,13.97-120.17l13.94,119.82c-.1,1.48-.22,2.86-.33,4.25v.02s9.69,6.01,9.69,6.01l18.05-229.61-9.7-6.03-13.59,172.82-1.9.04-.05-.45-11.94-102.71v-.05s3.07-26.3,3.07-26.3l-7.17-.17c-2.48-.06-4.9-.12-7.33-.18l3.1,26.7v.05s-12.04,103.5-12.04,103.5l-1.9-.04-.04-.45L99.39,10.98l-9.7,6.03Zm53.96,223.72l6.01,3.73-6.01-3.73.03-.42-.03.42Zm.37-4.83c-.07,1.03-.15,2-.22,2.96.08-.97.16-1.94.23-2.91v-.05Zm-12.93-111.14l-12.97,111.6v.05s12.97-111.65,12.97-111.65Zm-17.19,58.04h.09s.54-4.64.54-4.64l-1-.02-.13-1.71.5,6.37Zm22.4-102.25l11.84,101.86h.09s.37-4.67.37-4.67l-1,.02-11.3-97.21Zm-13.6-28.02l3.22,27.69-3.22-27.69h.58c2.62.08,5.23.14,7.85.21l8.1.2c-2.69-.07-5.37-.13-8.05-.2-2.85-.07-5.66-.14-8.47-.21h0Zm-34.05-36.05l4.18,53.16-4.18-53.16,11.61-7.22-11.61,7.22Zm73.23-7.63l11.61,7.22h0s-11.61-7.22-11.61-7.22h0Z"/><path class="cls-2" d="m13.46,9.16c-.42-.26-.73-.27-.98-.11l-.13.1-.28-.41-.23-.45.08-.06c.6-.39,1.32-.38,2.07.09l-.53.85Z"/><path class="cls-1" d="m12.23,9.86l-.58-.84-.45-.89.43-.31c.81-.53,1.74-.5,2.63.07l.42.27-1.07,1.69-.42-.27c-.31-.2-.41-.13-.44-.11l-.52.39Zm.62-1.42c.13,0,.27.02.43.07h0c-.27-.09-.53-.1-.77-.02h0c.1-.03.22-.05.34-.05Z"/><path class="cls-2" d="m72,241.1h-20v-29.21l-27-122.97v152.18H5V8.24h20v36.67l27,122.99V8.24h20v232.86Zm-19-1h18V9.24h-18v167.87L24,44.96V9.24H6v230.86h18V79.7l29,132.13v28.27Z"/><path class="cls-1" d="m72.5,241.6h-21v-29.66l-26-118.42v148.08H4.5V7.74h21v37.11l26,118.43V7.74h21v233.86Zm-20-1h19V8.74v231.86h-19Zm-47,0h19V84.31v156.29H5.5Zm48-1h17V9.74h-17v171.98L23.5,44.96V9.74H6.5v229.86h17V75.09l30,136.74v27.77ZM24.5,44.91V8.74v36.17Z"/><path class="cls-2" d="m18.46,16.03c-.42-.26-.73-.27-.98-.11l-.13.1-.28-.41-.23-.45.08-.06c.6-.39,1.32-.38,2.07.09l-.53.85Z"/><path class="cls-3" d="m17.23,16.73l-.57-.85-.45-.89.42-.31c.81-.53,1.73-.5,2.63.07l.42.27-1.07,1.69-.42-.27c-.31-.2-.41-.13-.44-.11l-.53.39Zm.62-1.42c.13,0,.27.02.43.07h0c-.27-.09-.53-.1-.77-.02h0c.1-.03.22-.05.34-.05Z"/><path class="cls-2" d="m77,247.97h-20v-29.21l-27-122.97v152.18H10V15.11h20v36.67l27,122.99V15.11h20v232.86Zm-19-1h18V16.11h-18v167.87L29,51.83V16.11H11v230.86h18V86.57l29,132.13v28.27Z"/><path class="cls-3" d="m77.5,248.47h-21v-29.66l-26-118.42v148.08H9.5V14.61h21v37.11l26,118.43V14.61h21v233.86Zm-20-1h19V15.61v231.86h-19Zm-47,0h19V91.18v156.29H10.5Zm48-1h17V16.61h-17v171.98L28.5,51.83V16.61H11.5v229.86h17V81.96l30,136.74v27.77ZM29.5,51.78V15.61v36.17Z"/><rect class="cls-2" x=".5" y="1.87" width="19" height="231.86"/><path class="cls-2" d="m20,234.23H0V1.37h20v232.86Zm-19-1h18V2.37H1v230.86Z"/><path class="cls-2" d="m55.24,231.11c-1.64-1.99-3.38-6.25-4.55-11.61L6.74,19.31c-1.83-8.33-1.62-16.19.47-17.54h0c2.09-1.35,5.26,4.31,7.09,12.64l43.95,200.19c1.83,8.33,1.62,16.19-.47,17.54h0c-.75.48-1.63.07-2.54-1.03"/><path class="cls-2" d="m57.13,232.84c-.59,0-1.37-.32-2.28-1.41h0c-1.76-2.14-3.5-6.55-4.66-11.82L6.25,19.42c-.66-13.78-.36-17.34.15-17.41.02,0,.05,0,1,0,.56,0,.98,0,1,0,.54,0,2.15,2.62,6.39,12.3l43.95,200.19c1.64,7.48,1.96,16.35-.69,18.06-.22.14-.53.28-.92.28Zm-1.5-2.05c.53.64,1.28,1.32,1.88.93,1.65-1.07,2.16-8.32.25-17.01L13.82,14.52c-1.59-7.26-4.03-11.72-5.6-12.37-.28-.11-.51-.1-.73.04-1.65,1.07-2.16,8.32-.25,17.01l43.95,200.19c1.12,5.12,2.79,9.38,4.45,11.4h0Z"/><rect class="cls-2" x="47.5" y="1.87" width="19" height="231.86"/><path class="cls-2" d="m67,234.23h-20V1.37h20v232.86Zm-19-1h18V2.37h-18v230.86Z"/><polygon class="cls-2" points="111 233.27 99.39 240.49 81.16 8.62 92.77 1.41 111 233.27"/><path class="cls-2" d="m98.95,241.34L80.64,8.36l12.57-7.81,18.32,232.98-12.57,7.81ZM81.68,8.89l18.14,230.74,10.65-6.62L92.33,2.27l-10.65,6.62Z"/><polygon class="cls-2" points="123.6 116.92 110.62 228.51 110.62 228.53 110.23 231.89 100.88 223.3 106.45 175.41 118.43 72.42 123.6 116.92"/><path class="cls-2" d="m110.62,232.92l-10.27-9.42,5.6-48.15,12.47-107.26,5.68,48.83v.06s-13.49,115.94-13.49,115.94Zm-9.21-9.81l8.44,7.75.28-2.39,12.97-111.55-4.67-40.17-17.02,146.36Z"/><path class="cls-2" d="m136.16,232.87l11.61,7.21L166,8.22l-11.61-7.21c-5.94,75.55-11.88,151.09-17.82,226.64-.14,1.74-.27,3.48-.41,5.22Z"/><path class="cls-2" d="m148.2,240.94l-12.57-7.81.43-5.53L153.96.15l12.57,7.81-.02.3-18.29,232.68Zm-11.52-8.33l10.65,6.62L165.48,8.49l-10.65-6.62-18.14,230.74Z"/><path class="cls-2" d="m131.95,45.09l-3.18,27.33-5.18,44.5-5.18-44.5-3.22-27.74c5.58.13,11.17.27,16.75.4Z"/><path class="cls-2" d="m123.6,121.25l-8.96-77.08,17.88.43-3.24,27.88-5.67,48.77Zm-7.83-76.05l7.83,67.4,7.79-67.02-15.63-.38Z"/><polygon class="cls-2" points="146.28 222.9 136.92 231.48 136.54 228.12 136.54 228.1 123.6 116.92 128.78 72.42 140.71 175 146.28 222.9"/><path class="cls-2" d="m136.54,232.51l-13.44-115.59v-.06s5.68-48.77,5.68-48.77l18.03,155-10.27,9.42Zm-12.44-115.59l13.21,113.53,8.44-7.75-16.98-145.95-4.67,40.17Z"/></g></svg>